<svg width="512" height="512" viewBox="0 0 512 512" fill="none" xmlns="http://www.w3.org/2000/svg">
<rect width="512" height="512" fill="url(#paint0_linear_18_21)"/>
<path d="M163.401 144C232.433 144 250.597 211.919 251.05 245.878H203.455C237.986 281.262 249.171 334.771 249.609 367.67H165.587C121.475 367.67 28 329.439 28 210.127H114.123C119.213 210.127 124.125 210.366 128.862 210.827C116.442 195.125 107.687 173.359 107.687 144H163.401ZM404.515 144C404.515 173.36 395.757 195.126 383.336 210.828C388.074 210.367 392.987 210.127 398.078 210.127H484.201C484.201 329.439 390.725 367.67 346.613 367.67H262.591C263.03 334.771 274.215 281.262 308.746 245.878H261.15C261.602 212.051 279.627 144.53 347.993 144.003L348.8 144H404.515ZM62.3262 241.636C68.4463 273.84 83.768 295.322 100.62 309.601C123.732 329.183 150.886 336.161 165.587 336.161H214.361C210.845 319.515 204.644 301.547 194.876 285.865C179.218 260.729 154.888 241.636 114.123 241.636H62.3262ZM398.078 241.636C357.314 241.636 332.983 260.73 317.325 285.866C307.557 301.547 301.356 319.515 297.84 336.161H346.613C361.314 336.161 388.469 329.183 411.581 309.601C428.433 295.322 443.755 273.84 449.875 241.636H398.078ZM144.583 175.509C148.887 186.493 155.269 194.253 161.853 199.828C174.766 210.765 189.777 214.369 196.694 214.369H213.577C211.655 208.998 209.219 203.712 206.201 198.869C197.765 185.331 185.333 175.509 163.401 175.509H144.583ZM348.8 175.509C326.868 175.509 314.436 185.331 305.999 198.869C302.981 203.712 300.546 208.998 298.623 214.369H315.506C322.423 214.369 337.434 210.765 350.348 199.828C356.931 194.253 363.313 186.493 367.617 175.509H348.8Z" fill="white"/>
<defs>
<linearGradient id="paint0_linear_18_21" x1="256" y1="0" x2="256" y2="512" gradientUnits="userSpaceOnUse">
<stop stop-color="#E23C00"/>
<stop offset="1" stop-color="#7C2100"/>
</linearGradient>
</defs>
</svg>
