<svg width="512" height="512" viewBox="0 0 512 512" fill="none" xmlns="http://www.w3.org/2000/svg">
<g clip-path="url(#clip0_18_21)">
<rect x="28" y="66" width="456" height="380" rx="98" fill="url(#paint0_linear_18_21)"/>
<rect width="512" height="50" rx="25" transform="matrix(-1 -8.74228e-08 -8.74228e-08 1 512 421)" fill="url(#paint1_linear_18_21)"/>
<rect width="50" height="50" rx="25" transform="matrix(1 0 0 -1 231 133)" fill="url(#paint2_linear_18_21)"/>
<path d="M175.006 158C235.395 158 251.286 217.416 251.683 247.124H210.045C240.254 278.078 250.039 324.889 250.423 353.67H176.918C138.328 353.67 56.5546 320.225 56.5546 215.849H131.896C136.349 215.849 140.646 216.059 144.791 216.462C133.925 202.726 126.266 183.684 126.266 158H175.006ZM385.936 158C385.936 183.684 378.275 202.726 367.409 216.462C371.554 216.059 375.851 215.85 380.305 215.85H455.646C455.646 320.225 373.873 353.67 335.283 353.67H261.779C262.163 324.889 271.948 278.078 302.157 247.124H260.519C260.913 217.532 276.681 158.464 336.489 158.003L337.195 158H385.936ZM86.5839 243.413C91.9379 271.586 105.341 290.379 120.084 302.87C140.303 320.001 164.057 326.105 176.918 326.105H219.586C216.51 311.543 211.086 295.825 202.54 282.106C188.842 260.117 167.558 243.413 131.896 243.413H86.5839ZM380.305 243.413C344.643 243.413 323.359 260.117 309.661 282.106C301.116 295.825 295.691 311.543 292.615 326.105H335.283C348.144 326.105 371.898 320.001 392.117 302.87C406.86 290.379 420.264 271.586 425.618 243.413H380.305ZM158.543 185.564C162.308 195.174 167.892 201.962 173.651 206.84C184.948 216.408 198.08 219.56 204.131 219.56H218.9C217.218 214.861 215.088 210.237 212.448 206C205.068 194.157 194.192 185.565 175.006 185.564H158.543ZM337.195 185.564C318.009 185.564 307.133 194.157 299.753 206C297.113 210.237 294.983 214.861 293.301 219.56H308.07C314.122 219.559 327.253 216.408 338.55 206.84C344.309 201.962 349.892 195.174 353.657 185.564H337.195Z" fill="white"/>
</g>
<defs>
<linearGradient id="paint0_linear_18_21" x1="256" y1="66" x2="256" y2="446" gradientUnits="userSpaceOnUse">
<stop stop-color="#E23C00"/>
<stop offset="1" stop-color="#7C2100"/>
</linearGradient>
<linearGradient id="paint1_linear_18_21" x1="256" y1="0" x2="256" y2="50" gradientUnits="userSpaceOnUse">
<stop stop-color="#E23C00"/>
<stop offset="1" stop-color="#7C2100"/>
</linearGradient>
<linearGradient id="paint2_linear_18_21" x1="25" y1="0" x2="25" y2="50" gradientUnits="userSpaceOnUse">
<stop stop-color="#E23C00"/>
<stop offset="1" stop-color="#7C2100"/>
</linearGradient>
<clipPath id="clip0_18_21">
<rect width="512" height="512" fill="white"/>
</clipPath>
</defs>
</svg>
