<svg width="512" height="512" viewBox="0 0 512 512" fill="none" xmlns="http://www.w3.org/2000/svg">
<path d="M151.962 183.597C229.437 183.597 249.823 259.822 250.331 297.935H196.916C235.671 337.647 248.223 397.701 248.716 434.625H154.416C104.909 434.625 -1.17064e-05 391.718 0 257.812H96.6572C102.37 257.812 107.882 258.081 113.199 258.598C99.2597 240.976 89.4327 216.547 89.4326 183.597H151.962ZM422.566 183.597C422.566 216.548 412.739 240.977 398.799 258.599C404.117 258.082 409.629 257.813 415.343 257.813H512C512 391.718 407.092 434.624 357.585 434.625H263.285C263.777 397.701 276.33 337.648 315.084 297.936H261.668C262.174 259.972 282.403 184.193 359.132 183.601L360.037 183.597H422.566ZM38.5244 293.174C45.3931 329.318 62.5886 353.428 81.502 369.453C107.441 391.43 137.917 399.262 154.416 399.262H209.155C205.209 380.58 198.249 360.413 187.286 342.814C169.713 314.603 142.407 293.174 96.6572 293.174H38.5244ZM415.343 293.175C369.592 293.175 342.287 314.604 324.714 342.815C313.751 360.414 306.791 380.58 302.845 399.262H357.585C374.084 399.262 404.559 391.43 430.498 369.453C449.411 353.428 466.607 329.318 473.476 293.175H415.343ZM360.037 218.959C335.423 218.96 321.471 229.983 312.002 245.177C308.615 250.613 305.882 256.546 303.725 262.574H322.672C330.435 262.574 347.282 258.529 361.775 246.254C369.164 239.997 376.327 231.288 381.157 218.959H360.037ZM130.843 218.959C135.673 231.288 142.836 239.996 150.225 246.253C164.718 258.528 181.564 262.573 189.327 262.573H208.275C206.118 256.545 203.385 250.612 199.998 245.176C190.529 229.982 176.576 218.96 151.962 218.959H130.843Z" fill="#E23C00"/>
<path d="M252.063 79.6036C253.696 76.1321 258.635 76.1321 260.268 79.6036L264.515 88.6319L266.808 93.5049C266.825 93.5401 266.843 93.5749 266.86 93.6094C266.945 93.7784 267.038 93.9402 267.14 94.0938C267.207 94.1937 267.278 94.2897 267.351 94.3829C268.371 95.6786 270.024 96.3144 271.642 96.0489C271.748 96.0316 271.853 96.0115 271.959 95.9864C272.247 95.9176 272.533 95.8196 272.812 95.6905L286.759 89.2452C290.242 87.6362 294.024 90.8107 293.044 94.5196L289.119 109.373C288.84 110.427 288.956 111.493 289.377 112.413C289.437 112.544 289.503 112.673 289.575 112.798C289.864 113.298 290.248 113.743 290.71 114.105C290.825 114.195 290.946 114.28 291.071 114.359C291.446 114.597 291.862 114.784 292.313 114.906L307.139 118.934C310.842 119.939 311.699 124.803 308.564 127.014L296.009 135.869C294.419 136.991 293.768 138.951 294.238 140.731C294.275 140.873 294.32 141.014 294.372 141.153C294.502 141.502 294.677 141.841 294.899 142.16L303.669 154.776C305.791 157.828 303.539 161.936 299.92 161.898V161.898C299.804 161.897 299.686 161.892 299.567 161.882L284.256 160.595C283.558 160.536 282.883 160.639 282.269 160.872C282.079 160.944 281.895 161.031 281.717 161.127C281.229 161.392 280.792 161.745 280.431 162.167C280.359 162.252 280.288 162.339 280.222 162.429C280.093 162.604 279.977 162.79 279.874 162.983C279.815 163.093 279.762 163.206 279.712 163.321C279.632 163.51 279.564 163.705 279.508 163.906C279.438 164.162 279.388 164.428 279.363 164.701L277.971 180.003C277.923 180.533 277.789 181.021 277.592 181.463C277.569 181.515 277.546 181.567 277.521 181.618C277.441 181.78 277.351 181.934 277.254 182.082C277.238 182.108 277.222 182.134 277.205 182.159C277.176 182.2 277.146 182.24 277.117 182.28C277.082 182.327 277.048 182.374 277.012 182.419C276.984 182.455 276.954 182.489 276.924 182.523C276.888 182.566 276.851 182.609 276.813 182.65C276.783 182.684 276.751 182.715 276.719 182.747C276.675 182.792 276.632 182.838 276.586 182.881C276.559 182.907 276.529 182.931 276.501 182.956C276.456 182.996 276.412 183.036 276.366 183.074C276.331 183.103 276.295 183.131 276.259 183.158C276.213 183.194 276.167 183.231 276.12 183.265C276.085 183.29 276.049 183.313 276.013 183.337C275.964 183.371 275.914 183.404 275.863 183.436C275.827 183.458 275.791 183.478 275.755 183.499C275.702 183.53 275.649 183.56 275.594 183.589C275.547 183.614 275.498 183.638 275.45 183.661C275.412 183.68 275.374 183.698 275.336 183.716C275.279 183.741 275.222 183.765 275.165 183.788C275.126 183.804 275.087 183.82 275.047 183.835C274.989 183.857 274.93 183.877 274.871 183.897C274.835 183.908 274.799 183.921 274.763 183.932C274.707 183.949 274.65 183.964 274.592 183.979C274.549 183.99 274.505 184.002 274.461 184.012C274.407 184.024 274.353 184.034 274.298 184.045C274.251 184.054 274.204 184.064 274.157 184.071C274.112 184.079 274.066 184.084 274.021 184.09C273.963 184.098 273.905 184.106 273.846 184.111C273.8 184.116 273.755 184.117 273.709 184.12C273.656 184.123 273.603 184.128 273.55 184.129C273.498 184.13 273.445 184.129 273.392 184.129C273.338 184.129 273.285 184.128 273.231 184.126C273.189 184.124 273.147 184.12 273.105 184.117C273.045 184.113 272.985 184.108 272.925 184.102C272.878 184.096 272.832 184.09 272.785 184.083C272.729 184.075 272.674 184.066 272.619 184.056C272.573 184.047 272.528 184.038 272.483 184.028C272.425 184.016 272.367 184.002 272.309 183.987C272.263 183.975 272.217 183.962 272.17 183.948C272.12 183.933 272.069 183.917 272.018 183.9C271.967 183.883 271.916 183.865 271.866 183.846C271.815 183.827 271.765 183.807 271.714 183.786C271.67 183.768 271.626 183.748 271.582 183.728C271.527 183.702 271.472 183.676 271.418 183.648C271.37 183.624 271.322 183.599 271.275 183.572C271.23 183.548 271.186 183.522 271.142 183.495C271.092 183.465 271.043 183.434 270.994 183.401C270.948 183.372 270.904 183.341 270.859 183.31C270.814 183.278 270.77 183.246 270.726 183.212C270.677 183.174 270.627 183.135 270.579 183.095C270.539 183.062 270.5 183.028 270.461 182.993C270.438 182.973 270.413 182.954 270.39 182.933L270.261 182.809L259.361 171.982C259.251 171.873 259.135 171.77 259.017 171.674C258.78 171.482 258.529 171.317 258.266 171.18C257.413 170.734 256.448 170.578 255.517 170.712C255.374 170.733 255.231 170.76 255.09 170.794C254.712 170.886 254.344 171.028 253.996 171.218C253.889 171.276 253.783 171.339 253.68 171.406C253.43 171.571 253.192 171.763 252.971 171.982L242.07 182.809C241.775 183.102 241.456 183.341 241.124 183.533C241.075 183.561 241.028 183.59 240.979 183.616C240.932 183.641 240.883 183.663 240.836 183.687C240.788 183.71 240.741 183.733 240.693 183.754C240.645 183.775 240.596 183.794 240.547 183.814C240.494 183.835 240.441 183.858 240.386 183.877C240.356 183.888 240.324 183.896 240.294 183.906C240.224 183.929 240.155 183.952 240.085 183.972C240.045 183.983 240.005 183.99 239.965 184C239.906 184.015 239.847 184.031 239.787 184.043C239.73 184.054 239.673 184.062 239.617 184.071C239.572 184.079 239.527 184.087 239.482 184.093C239.425 184.1 239.367 184.105 239.31 184.11C239.264 184.115 239.217 184.119 239.17 184.122C239.115 184.125 239.06 184.127 239.004 184.128C238.959 184.129 238.914 184.131 238.869 184.131C238.801 184.13 238.734 184.127 238.667 184.123C238.632 184.121 238.598 184.121 238.564 184.118C238.504 184.114 238.445 184.106 238.385 184.1C238.34 184.095 238.295 184.09 238.251 184.083C238.198 184.076 238.146 184.066 238.094 184.057C238.048 184.048 238.001 184.041 237.955 184.031C237.9 184.02 237.845 184.006 237.791 183.992C237.745 183.981 237.698 183.97 237.653 183.957C237.602 183.943 237.553 183.926 237.503 183.91C237.456 183.896 237.41 183.881 237.365 183.865C237.313 183.847 237.262 183.827 237.211 183.807C237.166 183.789 237.122 183.772 237.078 183.753C237.035 183.735 236.993 183.715 236.951 183.695C236.896 183.67 236.842 183.644 236.789 183.616C236.756 183.599 236.723 183.581 236.691 183.564C236.636 183.534 236.581 183.504 236.528 183.472C236.486 183.447 236.446 183.421 236.405 183.395C236.361 183.367 236.318 183.338 236.276 183.309C236.233 183.279 236.192 183.249 236.15 183.218C236.109 183.188 236.069 183.158 236.029 183.126C235.992 183.097 235.956 183.067 235.92 183.036C235.874 182.997 235.828 182.957 235.784 182.916C235.755 182.89 235.727 182.862 235.699 182.835C235.656 182.793 235.613 182.751 235.571 182.707C235.536 182.671 235.503 182.633 235.469 182.595C235.435 182.556 235.401 182.518 235.368 182.478C235.332 182.435 235.298 182.391 235.264 182.347C235.237 182.312 235.21 182.276 235.184 182.24C235.149 182.192 235.116 182.143 235.083 182.093C235.055 182.052 235.028 182.01 235.003 181.968C234.974 181.922 234.948 181.875 234.921 181.827C234.896 181.782 234.871 181.737 234.847 181.69C234.823 181.644 234.8 181.597 234.778 181.55C234.752 181.496 234.728 181.441 234.705 181.386C234.687 181.344 234.669 181.302 234.653 181.259C234.631 181.203 234.61 181.146 234.59 181.088C234.573 181.038 234.557 180.987 234.542 180.936C234.525 180.88 234.509 180.824 234.495 180.768C234.481 180.714 234.469 180.661 234.457 180.607C234.444 180.548 234.431 180.489 234.42 180.43C234.411 180.38 234.403 180.329 234.395 180.278C234.39 180.246 234.384 180.213 234.379 180.18L234.36 180.002L232.968 164.701C232.943 164.428 232.894 164.162 232.824 163.906C232.768 163.705 232.7 163.51 232.619 163.321C232.569 163.206 232.516 163.093 232.458 162.983C232.354 162.79 232.238 162.604 232.109 162.429C232.043 162.339 231.972 162.252 231.899 162.167C231.736 161.977 231.559 161.8 231.368 161.64C231.217 161.513 231.058 161.397 230.892 161.291C230.801 161.233 230.709 161.178 230.614 161.127C230.436 161.031 230.252 160.944 230.062 160.872C229.926 160.82 229.786 160.775 229.644 160.736C229.561 160.714 229.478 160.694 229.393 160.676C229.269 160.65 229.143 160.629 229.015 160.613C228.932 160.603 228.848 160.595 228.763 160.589C228.537 160.574 228.307 160.575 228.075 160.595L212.764 161.882C212.752 161.883 212.739 161.882 212.726 161.883L212.586 161.894C212.555 161.895 212.523 161.894 212.492 161.895C212.438 161.896 212.385 161.896 212.332 161.896C212.272 161.895 212.213 161.894 212.155 161.892C212.094 161.889 212.033 161.885 211.973 161.88C211.924 161.876 211.875 161.871 211.827 161.865C211.767 161.858 211.707 161.85 211.648 161.841C211.598 161.833 211.548 161.824 211.499 161.815C211.436 161.803 211.374 161.79 211.313 161.775C211.273 161.766 211.234 161.756 211.195 161.745C211.133 161.729 211.072 161.711 211.011 161.692C210.963 161.677 210.916 161.662 210.869 161.646C210.817 161.627 210.766 161.608 210.715 161.588C210.667 161.569 210.62 161.549 210.573 161.528C210.525 161.507 210.477 161.487 210.429 161.464C210.382 161.441 210.335 161.417 210.289 161.393C210.241 161.368 210.193 161.342 210.146 161.315C210.106 161.293 210.066 161.269 210.027 161.245C209.979 161.216 209.931 161.186 209.884 161.154C209.842 161.126 209.8 161.096 209.758 161.066C209.717 161.037 209.676 161.007 209.636 160.977C209.592 160.943 209.549 160.908 209.506 160.872C209.47 160.842 209.434 160.812 209.399 160.781C209.359 160.746 209.321 160.71 209.283 160.674C209.246 160.639 209.211 160.604 209.175 160.568C209.14 160.533 209.106 160.497 209.072 160.46C209.036 160.421 209.001 160.383 208.966 160.343C208.932 160.303 208.899 160.262 208.866 160.221C208.837 160.184 208.807 160.149 208.779 160.111C208.746 160.068 208.715 160.025 208.684 159.981C208.654 159.937 208.623 159.894 208.594 159.85C208.572 159.815 208.551 159.779 208.529 159.743C208.499 159.694 208.468 159.645 208.439 159.595C208.41 159.543 208.382 159.49 208.355 159.437C208.338 159.403 208.32 159.37 208.303 159.336C208.275 159.277 208.248 159.217 208.222 159.157C208.207 159.122 208.191 159.086 208.176 159.05C208.156 159 208.137 158.949 208.119 158.898C208.102 158.851 208.084 158.804 208.069 158.757C208.052 158.705 208.036 158.652 208.021 158.6C208.009 158.557 207.995 158.514 207.984 158.471C207.969 158.412 207.957 158.352 207.944 158.293C207.937 158.259 207.928 158.226 207.921 158.191L207.912 158.139C207.903 158.092 207.898 158.044 207.891 157.997C207.885 157.953 207.877 157.909 207.872 157.864C207.839 157.582 207.834 157.296 207.856 157.008C207.858 156.983 207.859 156.958 207.861 156.934C207.867 156.869 207.876 156.806 207.885 156.741C207.891 156.697 207.896 156.653 207.904 156.609C207.914 156.548 207.928 156.487 207.941 156.426C207.95 156.385 207.956 156.344 207.966 156.303C208.094 155.781 208.322 155.265 208.662 154.776L217.432 142.16C218.698 140.338 218.443 137.911 216.933 136.387C216.801 136.253 216.66 136.126 216.508 136.008C216.448 135.96 216.386 135.914 216.322 135.869L203.767 127.014C203.375 126.737 203.045 126.419 202.776 126.072C202.641 125.899 202.522 125.719 202.418 125.533C201.316 123.579 201.841 121.009 203.669 119.662C203.843 119.534 204.029 119.417 204.226 119.313C204.325 119.26 204.426 119.212 204.531 119.166C204.74 119.075 204.96 118.997 205.192 118.934L220.018 114.906C220.369 114.811 220.698 114.676 221.003 114.509C222.794 113.532 223.757 111.431 223.213 109.373L219.288 94.5196C218.307 90.8105 222.09 87.6357 225.573 89.2452L239.519 95.6905C239.761 95.8025 240.009 95.8906 240.258 95.9571C242.023 96.4275 243.902 95.7824 245.009 94.3448C245.029 94.3187 245.05 94.2932 245.07 94.2667C245.242 94.0326 245.395 93.7788 245.523 93.5059L252.063 79.6036Z" fill="#E23C00"/>
</svg>
